<svg width="20" height="15" viewBox="0 0 20 15" fill="none" xmlns="http://www.w3.org/2000/svg">
<path d="M7.35057 0.00254736C7.35057 0.00254736 4.58226 0.192763 2.77182 1.64655C2.76332 1.64995 2.75313 1.65504 2.74464 1.66014C2.43045 1.95056 2.19438 2.40062 1.90226 3.04599C1.61014 3.69137 1.30104 4.52186 1.01912 5.45086C0.456963 7.31055 0.000106257 9.59314 0.000106257 11.7416C-0.00159199 11.818 0.01709 11.8927 0.0544535 11.9589C0.689637 13.0748 1.8581 13.749 2.94844 14.1736C4.03879 14.5982 5.04591 14.768 5.55711 14.785C5.70147 14.7901 5.83904 14.7239 5.92396 14.6084L6.98373 13.141C7.838 13.3431 8.84003 13.4807 10 13.4807C11.16 13.4807 12.162 13.3431 13.0163 13.141L14.076 14.6084C14.161 14.7239 14.2985 14.7901 14.4429 14.785C14.9541 14.768 15.9612 14.5982 17.0516 14.1736C18.1419 13.749 19.3104 13.0748 19.9455 11.9589C19.9829 11.8927 20.0016 11.818 19.9999 11.7416C19.9999 9.59314 19.543 7.31055 18.9809 5.45086C18.699 4.52186 18.3899 3.69137 18.0977 3.04599C17.8056 2.40062 17.5696 1.95056 17.2554 1.66014C17.2469 1.65504 17.2367 1.64995 17.2282 1.64655C15.4177 0.192763 12.6494 0.00254736 12.6494 0.00254736C12.6172 -0.000849121 12.5866 -0.000849121 12.5543 0.00254736C12.4032 0.0229276 12.2758 0.121432 12.2147 0.260697C12.2147 0.260697 12.0669 0.585082 11.9701 1.04873C11.1226 0.912864 10.4093 0.872103 10 0.872103C9.5907 0.872103 8.87739 0.912864 8.02991 1.04873C7.93311 0.585082 7.78535 0.260697 7.78535 0.260697C7.71062 0.0908616 7.53569 -0.0127377 7.35057 0.00254736ZM7.07884 0.940037C7.1111 1.02835 7.13318 1.11157 7.16036 1.21177C6.18041 1.43935 5.10705 1.81129 4.10332 2.43459C3.94538 2.50082 3.84178 2.65367 3.83668 2.82521C3.83329 2.99504 3.93009 3.15299 4.08294 3.22772C4.23749 3.30075 4.42092 3.27867 4.55169 3.16827C6.56593 1.91999 9.12875 1.74166 10 1.74166C10.8713 1.74166 13.4341 1.91999 15.4483 3.16827C15.5791 3.27867 15.7625 3.30075 15.9171 3.22772C16.0699 3.15299 16.1667 2.99504 16.1633 2.82521C16.1582 2.65367 16.0546 2.50082 15.8967 2.43459C14.893 1.81129 13.8196 1.43935 12.8396 1.21177C12.8668 1.11157 12.8889 1.02835 12.9212 0.940037C13.4171 1.00118 15.3447 1.26103 16.6575 2.29872C16.7425 2.37684 17.038 2.81162 17.3097 3.41284C17.5814 4.01405 17.8668 4.79699 18.1385 5.69542C18.6684 7.44812 19.0964 9.61012 19.1168 11.5921C18.6225 12.392 17.6952 12.9864 16.7391 13.3584C15.8695 13.6964 15.0577 13.8475 14.6331 13.8883L13.8994 12.8964C14.2731 12.7758 14.6093 12.6451 14.9048 12.516C16.002 12.0337 16.5896 11.5242 16.5896 11.5242C16.7696 11.3628 16.7849 11.086 16.6236 10.906C16.4622 10.7259 16.1854 10.7107 16.0054 10.872C16.0054 10.872 15.5502 11.2881 14.5516 11.728C14.1847 11.8893 13.7398 12.049 13.2337 12.1899C13.1165 12.1763 12.9993 12.2103 12.9076 12.285C12.0975 12.482 11.1345 12.6111 10 12.6111C8.85701 12.6111 7.89235 12.4701 7.07884 12.2714C6.98712 12.2103 6.87503 12.1848 6.76634 12.2035C6.25853 12.0625 5.81696 11.8893 5.44842 11.728C4.44979 11.2881 3.99463 10.872 3.99463 10.872C3.89612 10.7803 3.76026 10.7412 3.62779 10.7633C3.45965 10.7888 3.32038 10.9094 3.27453 11.0741C3.22697 11.2371 3.28132 11.4138 3.4104 11.5242C3.4104 11.5242 3.99803 12.0337 5.09516 12.516C5.39067 12.6451 5.72695 12.7758 6.10059 12.8964L5.3669 13.8883C4.94231 13.8475 4.1305 13.6964 3.26094 13.3584C2.30477 12.9864 1.37747 12.392 0.883249 11.5921C0.903629 9.61012 1.33161 7.44812 1.8615 5.69542C2.13324 4.79699 2.41856 4.01405 2.6903 3.41284C2.96203 2.81162 3.25754 2.37684 3.34246 2.29872C4.65529 1.26103 6.58292 1.00118 7.07884 0.940037ZM7.17394 6.08944C6.06492 6.08944 5.21744 7.09656 5.21744 8.26333C5.21744 9.4301 6.06492 10.4372 7.17394 10.4372C8.28297 10.4372 9.13044 9.4301 9.13044 8.26333C9.13044 7.09656 8.28297 6.08944 7.17394 6.08944ZM12.8261 6.08944C11.717 6.08944 10.8696 7.09656 10.8696 8.26333C10.8696 9.4301 11.717 10.4372 12.8261 10.4372C13.9351 10.4372 14.7826 9.4301 14.7826 8.26333C14.7826 7.09656 13.9351 6.08944 12.8261 6.08944ZM7.17394 6.959C7.74629 6.959 8.26089 7.50926 8.26089 8.26333C8.26089 9.0174 7.74629 9.56766 7.17394 9.56766C6.6016 9.56766 6.087 9.0174 6.087 8.26333C6.087 7.50926 6.6016 6.959 7.17394 6.959ZM12.8261 6.959C13.3984 6.959 13.913 7.50926 13.913 8.26333C13.913 9.0174 13.3984 9.56766 12.8261 9.56766C12.2537 9.56766 11.7391 9.0174 11.7391 8.26333C11.7391 7.50926 12.2537 6.959 12.8261 6.959Z" fill="#DCEFF8"/>
</svg>
