<svg width="20" height="20" viewBox="0 0 20 20" fill="none" xmlns="http://www.w3.org/2000/svg">
<path fill-rule="evenodd" clip-rule="evenodd" d="M0 10.2522C0 4.58991 4.477 0 10 0C15.523 0 20 4.58991 20 10.2522C20 14.8078 17.0995 18.6647 13.09 20H13.0695C13.1641 19.9685 13.2581 19.9357 13.3515 19.9015L13.703 19.7672C13.3475 19.7549 13.008 19.6955 13.005 19.4771L13 16.505C13 16.0236 12.89 15.5536 12.679 15.1276C15.4995 14.5468 16.872 12.8372 16.872 9.91076C16.872 8.75482 16.5395 7.73421 15.884 6.8761C15.934 6.71361 15.971 6.54547 15.994 6.37323C16.088 5.67147 15.9825 5.21268 15.8975 4.8436L15.884 4.78414C15.7948 4.39252 15.6885 4.10856 15.6761 4.07547C15.6755 4.07408 15.6752 4.07313 15.675 4.07264L15.6195 3.92808L15.564 3.78352L15.413 3.76712L15.2615 3.75072C15.2615 3.75072 15.162 3.73995 15.011 3.73995C14.8015 3.73995 14.491 3.76148 14.1975 3.86349L14.0995 3.89732C13.7295 4.02496 13.38 4.14594 12.891 4.4453C12.748 4.53296 12.5915 4.63292 12.424 4.74467C11.667 4.55244 10.8525 4.45453 10 4.45453C9.13901 4.45453 8.31751 4.55295 7.55551 4.74723C7.38601 4.63446 7.22851 4.53347 7.08451 4.4453C6.59771 4.14728 6.24915 4.02656 5.88099 3.89905L5.87601 3.89732L5.77801 3.86349C5.48551 3.76148 5.17451 3.73995 4.96501 3.73995C4.81401 3.73995 4.71451 3.75072 4.71451 3.75072L4.56351 3.76712L4.41351 3.78301L4.35751 3.92706L4.30101 4.07212C4.30089 4.07244 4.30071 4.07291 4.30048 4.07354C4.29074 4.09932 4.18231 4.3863 4.09151 4.78517L4.07801 4.84412C3.99301 5.21268 3.88751 5.67198 3.98151 6.37323C4.00551 6.5506 4.04401 6.72437 4.09651 6.89148C3.45401 7.74549 3.12851 8.76046 3.12851 9.91076C3.12851 12.8301 4.50251 14.5386 7.32701 15.124C7.23001 15.3229 7.15451 15.5331 7.10101 15.7514C7.00251 15.7858 6.91201 15.8089 6.83201 15.8217C6.71301 15.8401 6.58851 15.8493 6.46251 15.8493C6.11951 15.8493 5.85001 15.7807 5.74501 15.7166C5.58851 15.6212 5.30901 15.3439 5.03801 14.9384C4.80651 14.5924 4.44551 14.1398 4.04201 13.9506C3.69301 13.7871 3.32351 13.6933 3.02751 13.6933C2.95851 13.6933 2.89501 13.6984 2.83951 13.7077C2.58101 13.7497 2.36501 13.8953 2.24751 14.1075C2.14601 14.2905 2.13001 14.5037 2.20351 14.6924C2.31301 14.9733 2.62901 15.1973 2.87501 15.3357C2.99601 15.4039 3.25751 15.653 3.41001 15.9042C3.52395 16.0919 3.57699 16.2258 3.64994 16.41L3.65101 16.4127C3.69451 16.5229 3.74251 16.6429 3.80751 16.7879C4.04251 17.3118 4.77601 17.7742 4.85901 17.8249C5.26201 18.0725 5.93951 18.152 6.43751 18.1751L6.49901 18.1766H6.49951C6.61951 18.1766 6.78451 18.1648 7.00151 18.1402V19.4797C7.00251 19.7497 6.73532 19.8118 6.3811 19.8068C2.64792 18.3198 0 14.6049 0 10.2522ZM6.41052 19.8184C6.57497 19.8833 6.7415 19.9439 6.91 20H6.93277C6.83791 19.9684 6.74365 19.9353 6.65001 19.901L6.41052 19.8184Z" fill="currentColor"/>
</svg>
