<svg width="20" height="20" viewBox="0 0 20 20" fill="none" xmlns="http://www.w3.org/2000/svg">
<path d="M2.38095 0C1.07166 0 0 1.07166 0 2.38095V17.619C0 18.9283 1.07166 20 2.38095 20H17.619C18.9283 20 20 18.9283 20 17.619V2.38095C20 1.07166 18.9283 0 17.619 0H2.38095ZM2.38095 0.952381H17.619C18.4136 0.952381 19.0476 1.58644 19.0476 2.38095V17.619C19.0476 18.4136 18.4136 19.0476 17.619 19.0476H2.38095C1.58644 19.0476 0.952381 18.4136 0.952381 17.619V2.38095C0.952381 1.58644 1.58644 0.952381 2.38095 0.952381ZM4.7619 3.33891C4.24037 3.33891 3.77106 3.4948 3.42355 3.7872C3.07604 4.07961 2.86272 4.51643 2.86272 4.98419C2.86272 5.87332 3.63395 6.56648 4.61496 6.63504L4.61682 6.63597C4.66356 6.65191 4.71252 6.66038 4.7619 6.66109C5.84429 6.66109 6.66109 5.9029 6.66109 4.98419C6.661 4.97581 6.66069 4.96744 6.66016 4.95908C6.6117 4.05421 5.80497 3.33891 4.7619 3.33891ZM4.7619 4.28013C5.42487 4.28013 5.68665 4.57621 5.71522 4.99628C5.70943 5.40402 5.45719 5.71987 4.7619 5.71987C4.10219 5.71987 3.80394 5.38201 3.80394 4.98419C3.80394 4.78528 3.87653 4.63538 4.02902 4.50707C4.18151 4.37876 4.4263 4.28013 4.7619 4.28013ZM3.33333 7.14286C3.20704 7.14287 3.08593 7.19304 2.99663 7.28234C2.90733 7.37164 2.85716 7.49276 2.85714 7.61905V16.6667C2.85716 16.793 2.90733 16.9141 2.99663 17.0034C3.08593 17.0927 3.20704 17.1428 3.33333 17.1429H6.19048C6.31677 17.1428 6.43788 17.0927 6.52718 17.0034C6.61648 16.9141 6.66665 16.793 6.66667 16.6667V13.8737V7.61905C6.66665 7.49276 6.61648 7.37164 6.52718 7.28234C6.43788 7.19304 6.31677 7.14287 6.19048 7.14286H3.33333ZM7.61905 7.14286C7.49276 7.14287 7.37164 7.19304 7.28234 7.28234C7.19304 7.37164 7.14287 7.49276 7.14286 7.61905V16.6667C7.14287 16.793 7.19304 16.9141 7.28234 17.0034C7.37164 17.0927 7.49276 17.1428 7.61905 17.1429H10.4762C10.6025 17.1428 10.7236 17.0927 10.8129 17.0034C10.9022 16.9141 10.9524 16.793 10.9524 16.6667V11.9048C10.9524 11.5097 11.0602 11.1167 11.25 10.8594C11.4398 10.6021 11.6793 10.4476 12.1345 10.4557C12.6039 10.4638 12.8524 10.6246 13.0404 10.877C13.2283 11.1295 13.3333 11.5079 13.3333 11.9048V16.6667C13.3333 16.793 13.3835 16.9141 13.4728 17.0034C13.5621 17.0927 13.6832 17.1428 13.8095 17.1429H16.6667C16.793 17.1428 16.9141 17.0927 17.0034 17.0034C17.0927 16.9141 17.1428 16.793 17.1429 16.6667V11.5532C17.1429 10.1429 16.7251 9.02587 16.0091 8.27009C15.2931 7.51431 14.2972 7.14286 13.244 7.14286C12.2431 7.14286 11.4814 7.47852 10.9524 7.82087V7.61905C10.9524 7.49276 10.9022 7.37164 10.8129 7.28234C10.7236 7.19304 10.6025 7.14287 10.4762 7.14286H7.61905ZM3.80952 8.09524H5.71429V13.8737V16.1905H3.80952V8.09524ZM8.09524 8.09524H10V8.83836C10 8.93821 10.0314 9.03552 10.0898 9.11654C10.1482 9.19757 10.2305 9.2582 10.3252 9.28987C10.4199 9.32153 10.5221 9.32264 10.6175 9.29302C10.7129 9.2634 10.7965 9.20456 10.8566 9.12481C10.8566 9.12481 11.6044 8.09524 13.244 8.09524C14.079 8.09524 14.7949 8.37266 15.3181 8.92485C15.8412 9.47704 16.1905 10.3277 16.1905 11.5532V16.1905H14.2857V11.9048C14.2857 11.3492 14.1526 10.7748 13.8049 10.3078C13.4571 9.84089 12.8723 9.51575 12.1512 9.50335C11.4264 9.49048 10.8322 9.82238 10.4836 10.2948C10.1351 10.7673 10 11.3475 10 11.9048V16.1905H8.09524V8.09524Z" fill="currentColor"/>
</svg>
