<svg width="147" height="54" viewBox="0 0 147 54" fill="none" xmlns="http://www.w3.org/2000/svg">
<g clip-path="url(#clip0_3_14)">
<path d="M75.7758 18.0574L82.6843 17.6165C82.8419 18.7317 83.1309 19.5616 83.6037 20.1581C84.3655 21.0917 85.4162 21.5585 86.8084 21.5585C87.8329 21.5585 88.6472 21.3251 89.1988 20.8324C89.7242 20.4434 90.0394 19.8209 90.0394 19.1726C90.0394 18.5501 89.7505 17.9536 89.2514 17.5646C88.726 17.0978 87.4914 16.631 85.5476 16.216C82.3691 15.5158 80.0838 14.5821 78.7441 13.3892C77.4044 12.274 76.6427 10.6401 76.6952 8.90247C76.6952 7.70948 77.063 6.51649 77.7459 5.53098C78.534 4.41579 79.611 3.53401 80.8981 3.04126C82.2903 2.44476 84.2341 2.13354 86.6771 2.13354C89.6716 2.13354 91.957 2.67817 93.5331 3.79336C95.1091 4.88261 96.0548 6.64616 96.3438 9.05808L89.514 9.4471C89.3302 8.40971 88.9624 7.65761 88.3582 7.16485C87.7541 6.6721 86.966 6.43869 85.9416 6.43869C85.101 6.43869 84.4706 6.62023 84.0503 6.95738C83.6562 7.26859 83.3936 7.73541 83.4198 8.25411C83.4198 8.64312 83.63 9.00621 83.9452 9.23962C84.2867 9.55083 85.101 9.83611 86.3881 10.0955C89.5666 10.7698 91.8256 11.4441 93.2178 12.1443C94.61 12.8445 95.6082 13.7004 96.2124 14.7118C96.8428 15.7492 97.1581 16.9422 97.1318 18.1611C97.1318 19.6135 96.7115 21.0658 95.8709 22.2847C95.0041 23.5555 93.7957 24.541 92.3773 25.1375C90.88 25.7859 88.9887 26.123 86.7296 26.123C82.7369 26.123 79.9787 25.3709 78.4289 23.8408C76.8791 22.3106 75.9597 20.3915 75.7758 18.0574ZM2.46153 25.734V2.5485H14.5711C16.8039 2.5485 18.5376 2.73004 19.7197 3.11906C20.8755 3.48214 21.8999 4.23425 22.5829 5.24569C23.3447 6.36088 23.7124 7.65761 23.6862 9.00621C23.765 11.2885 22.5829 13.467 20.5603 14.6081C19.7722 15.049 18.9054 15.3602 18.0123 15.5158C18.669 15.6973 19.3257 16.0085 19.9036 16.3716C20.3501 16.7347 20.7179 17.1497 21.0594 17.5906C21.4534 18.0314 21.7949 18.5242 22.0838 19.0429L25.6037 25.7599H17.3555L13.4679 18.6279C12.9688 17.7202 12.5485 17.1237 12.1545 16.8385C11.6291 16.4754 10.9987 16.2938 10.3682 16.2938H9.7378V25.7081H2.46153V25.734ZM9.7378 11.9368H12.8112C13.4679 11.8849 14.0983 11.7812 14.7287 11.6256C15.2016 11.5478 15.6219 11.2885 15.9108 10.8994C16.62 9.96579 16.515 8.64312 15.6481 7.83915C15.1753 7.45013 14.2559 7.24266 12.9425 7.24266H9.7378V11.9368ZM0.806641 45.5999L7.71515 45.159C7.87276 46.2742 8.16171 47.1041 8.63454 47.7006C9.37004 48.6342 10.447 49.127 11.8392 49.127C12.8637 49.127 13.678 48.8936 14.2296 48.4008C14.755 47.9859 15.0702 47.3894 15.0702 46.741C15.0702 46.1186 14.7813 45.5221 14.2822 45.1331C13.7568 44.6663 12.5222 44.1994 10.5521 43.7845C7.37367 43.0842 5.08834 42.1506 3.74867 40.9576C2.409 39.8424 1.64722 38.2085 1.69976 36.4709C1.69976 35.2779 2.06751 34.0849 2.75048 33.0994C3.53852 31.9842 4.61552 31.1025 5.90265 30.6097C7.29486 30.0132 9.2387 29.702 11.6816 29.702C14.6762 29.702 16.9615 30.2466 18.5376 31.3618C20.1137 32.477 21.0331 34.2146 21.322 36.6265L14.4923 37.0156C14.3084 35.9782 13.9407 35.2261 13.3365 34.7333C12.7586 34.2406 11.9443 34.0071 10.9199 34.0331C10.0793 34.0331 9.44885 34.2146 9.02856 34.5777C8.60827 34.8889 8.37186 35.3557 8.39812 35.8744C8.39812 36.2635 8.60827 36.6265 8.92349 36.8599C9.26497 37.1712 10.0793 37.4564 11.3664 37.7158C14.5449 38.3901 16.8039 39.0644 18.1961 39.7646C19.5883 40.4649 20.5865 41.3207 21.1907 42.3321C21.8211 43.3695 22.1363 44.5625 22.1363 45.7555C22.1363 47.2078 21.6898 48.6342 20.8755 49.8532C20.0086 51.124 18.8003 52.1095 17.3818 52.706C15.8845 53.3543 13.9932 53.6915 11.7342 53.6915C7.74142 53.6915 4.98327 52.9394 3.43345 51.4092C1.88363 49.8532 1.01679 47.934 0.806641 45.5999Z" fill="currentColor"/>
<path d="M35.7432 43.7844L42.1001 45.6776C41.7586 47.2596 41.0494 48.7638 40.0774 50.0865C39.1843 51.2535 38.0023 52.1613 36.6626 52.7577C35.2966 53.3542 33.5629 53.6655 31.4615 53.6655C28.9135 53.6655 26.812 53.3024 25.2097 52.5762C23.5811 51.85 22.1889 50.5533 21.0068 48.712C19.8247 46.8706 19.2468 44.5105 19.2468 41.6318C19.2468 37.7935 20.2713 34.837 22.3465 32.7881C24.4216 30.7393 27.3374 29.7019 31.12 29.7019C34.0883 29.7019 36.3999 30.2984 38.1073 31.4655C39.7885 32.6584 41.0494 34.4739 41.8899 36.9117L35.4805 38.3122C35.3229 37.7676 35.0865 37.2229 34.7713 36.7561C34.3773 36.2115 33.8782 35.7965 33.274 35.4853C32.6698 35.1741 31.9869 35.0444 31.3039 35.0444C29.649 35.0444 28.3881 35.6928 27.5213 37.0155C26.8646 37.975 26.5231 39.5052 26.5231 41.5799C26.5231 44.1475 26.9171 45.911 27.7052 46.8706C28.4932 47.8302 29.5965 48.297 31.0412 48.297C32.4334 48.297 33.4841 47.908 34.1934 47.1559C34.9026 46.3519 35.428 45.2367 35.7432 43.7844ZM50.5847 30.0909H57.8347V38.2084H65.7676V30.0909H73.0702V53.2764H65.7676V43.8881H57.8347V53.2764H50.5847V30.0909Z" fill="currentColor"/>
<path d="M72.0723 41.6837C72.0723 37.8973 73.1493 34.9407 75.277 32.84C77.4047 30.7393 80.3993 29.676 84.2081 29.676C88.1221 29.676 91.1166 30.7134 93.2444 32.7882C95.3721 34.8629 96.4228 37.7676 96.4228 41.5022C96.4228 44.2253 95.95 46.4298 95.0306 48.1674C94.1375 49.8791 92.7453 51.2795 91.0378 52.2132C89.2779 53.1728 87.0976 53.6655 84.4971 53.6655C81.844 53.6655 79.6638 53.2506 77.9301 52.4207C76.1438 51.5389 74.6728 50.1643 73.7009 48.4786C72.6239 46.6632 72.0723 44.4069 72.0723 41.6837ZM79.3223 41.7097C79.3223 44.0438 79.7688 45.7295 80.6357 46.7669C81.5025 47.7784 82.7109 48.2971 84.2344 48.2971C85.7842 48.2971 86.9925 47.8043 87.8594 46.7929C88.7262 45.7814 89.1465 43.9919 89.1465 41.3985C89.1465 39.22 88.7 37.612 87.8069 36.6265C86.9138 35.615 85.7054 35.1223 84.1819 35.1223C82.8422 35.0704 81.5551 35.641 80.6619 36.6524C79.7688 37.6639 79.3223 39.3496 79.3223 41.7097ZM103.857 41.6837C103.857 37.8973 104.934 34.9407 107.061 32.84C109.189 30.7393 112.184 29.676 115.993 29.676C119.906 29.676 122.927 30.7134 125.029 32.7882C127.13 34.8629 128.207 37.7676 128.207 41.5022C128.207 44.2253 127.734 46.4298 126.815 48.1674C125.922 49.8791 124.53 51.2795 122.822 52.2132C121.062 53.1728 118.882 53.6655 116.281 53.6655C113.628 53.6655 111.448 53.2506 109.714 52.4207C107.928 51.5389 106.457 50.1643 105.485 48.4786C104.408 46.6632 103.857 44.4069 103.857 41.6837ZM111.107 41.7097C111.107 44.0438 111.553 45.7295 112.42 46.7669C113.287 47.7784 114.495 48.2971 116.019 48.2971C117.569 48.2971 118.777 47.8043 119.644 46.7929C120.511 45.7814 120.931 43.9919 120.931 41.3985C120.931 39.22 120.484 37.612 119.591 36.6265C118.698 35.615 117.49 35.1223 115.966 35.1223C114.627 35.0704 113.313 35.641 112.446 36.6524C111.553 37.6639 111.107 39.3496 111.107 41.7097Z" fill="currentColor"/>
<path d="M127.445 30.0911H134.695V47.571H146.017V53.2766H127.419V30.0911H127.445Z" fill="currentColor"/>
<path d="M119.454 28.7529C126.753 23.3222 129.004 14.1163 124.481 8.19093C119.959 2.26556 110.375 1.86456 103.076 7.29526C95.7768 12.726 93.526 21.9319 98.0486 27.8572C102.571 33.7826 112.155 34.1836 119.454 28.7529Z" fill="#90A7B2"/>
<mask id="mask0_3_14" style="mask-type:luminance" maskUnits="userSpaceOnUse" x="95" y="3" width="32" height="30">
<path d="M119.454 28.7529C126.753 23.3222 129.004 14.1163 124.481 8.19093C119.959 2.26556 110.375 1.86456 103.076 7.29526C95.7768 12.726 93.526 21.9319 98.0486 27.8572C102.571 33.7826 112.155 34.1836 119.454 28.7529Z" fill="white"/>
</mask>
<g mask="url(#mask0_3_14)">
<path d="M79.4331 15.0854L117.152 -12.9781L143.253 21.2175L105.534 49.281L79.4331 15.0854Z" fill="#90A7B2"/>
<mask id="mask1_3_14" style="mask-type:luminance" maskUnits="userSpaceOnUse" x="79" y="-13" width="65" height="63">
<path d="M79.4331 15.0854L117.152 -12.9781L143.253 21.2175L105.534 49.281L79.4331 15.0854Z" fill="white"/>
</mask>
<g mask="url(#mask1_3_14)">
<path d="M119.454 28.7529C126.753 23.3222 129.004 14.1163 124.481 8.19093C119.959 2.26556 110.375 1.86456 103.076 7.29526C95.7768 12.726 93.526 21.9319 98.0486 27.8572C102.571 33.7826 112.155 34.1836 119.454 28.7529Z" fill="#90A7B2"/>
<mask id="mask2_3_14" style="mask-type:luminance" maskUnits="userSpaceOnUse" x="95" y="3" width="32" height="30">
<path d="M119.454 28.7529C126.753 23.3222 129.004 14.1163 124.481 8.19093C119.959 2.26556 110.375 1.86456 103.076 7.29526C95.7768 12.726 93.526 21.9319 98.0486 27.8572C102.571 33.7826 112.155 34.1836 119.454 28.7529Z" fill="white"/>
</mask>
<g mask="url(#mask2_3_14)">
<path d="M89.937 17.3689L116.349 -2.28135L132.743 19.1973L106.33 38.8475L89.937 17.3689Z" fill="#90A7B2"/>
<mask id="mask3_3_14" style="mask-type:luminance" maskUnits="userSpaceOnUse" x="89" y="-3" width="44" height="42">
<path d="M89.937 17.3689L116.349 -2.28135L132.743 19.1973L106.33 38.8475L89.937 17.3689Z" fill="white"/>
</mask>
<g mask="url(#mask3_3_14)">
<path d="M119.454 28.7529C126.753 23.3222 129.004 14.1163 124.481 8.19093C119.959 2.26556 110.375 1.86456 103.076 7.29526C95.7768 12.726 93.526 21.9319 98.0486 27.8572C102.571 33.7826 112.155 34.1836 119.454 28.7529Z" fill="#90A7B2" stroke="currentColor" stroke-width="9.68067" stroke-miterlimit="10"/>
</g>
<mask id="mask4_3_14" style="mask-type:luminance" maskUnits="userSpaceOnUse" x="93" y="-2" width="37" height="40">
<path d="M93.7007 30.2283L102.771 -1.11885L129.001 6.33383L119.931 37.681L93.7007 30.2283Z" fill="white"/>
</mask>
<g mask="url(#mask4_3_14)">
<path d="M89.937 17.3325L116.313 -2.28161L132.743 19.2332L106.366 38.8473L89.937 17.3325Z" stroke="currentColor" stroke-width="9.68067" stroke-miterlimit="10"/>
</g>
<path d="M119.454 28.7529C126.753 23.3222 129.004 14.1163 124.481 8.19093C119.959 2.26556 110.375 1.86456 103.076 7.29526C95.7768 12.726 93.526 21.9319 98.0486 27.8572C102.571 33.7826 112.155 34.1836 119.454 28.7529Z" stroke="currentColor" stroke-width="9.68067" stroke-miterlimit="10"/>
<path d="M89.937 17.3689L116.349 -2.28135L132.743 19.1973L106.33 38.8475L89.937 17.3689Z" fill="#90A7B2"/>
<mask id="mask5_3_14" style="mask-type:luminance" maskUnits="userSpaceOnUse" x="89" y="-3" width="44" height="42">
<path d="M89.937 17.3689L116.349 -2.28135L132.743 19.1973L106.33 38.8475L89.937 17.3689Z" fill="white"/>
</mask>
<g mask="url(#mask5_3_14)">
<path d="M119.454 28.7529C126.753 23.3222 129.004 14.1163 124.481 8.19093C119.959 2.26556 110.375 1.86456 103.076 7.29526C95.7768 12.726 93.526 21.9319 98.0486 27.8572C102.571 33.7826 112.155 34.1836 119.454 28.7529Z" fill="#90A7B2" stroke="currentColor" stroke-width="9.68067" stroke-miterlimit="10"/>
</g>
<mask id="mask6_3_14" style="mask-type:luminance" maskUnits="userSpaceOnUse" x="93" y="-2" width="37" height="40">
<path d="M93.7007 30.2283L102.771 -1.11885L129.001 6.33383L119.931 37.681L93.7007 30.2283Z" fill="white"/>
</mask>
<g mask="url(#mask6_3_14)">
<path d="M89.937 17.3325L116.313 -2.28161L132.743 19.2332L106.366 38.8473L89.937 17.3325Z" stroke="currentColor" stroke-width="9.68067" stroke-miterlimit="10"/>
</g>
<path d="M79.4331 15.0854L117.152 -12.9781L143.253 21.2175L105.534 49.281L79.4331 15.0854Z" stroke="currentColor" stroke-width="9.68067" stroke-miterlimit="10"/>
</g>
<path d="M119.454 28.7529C126.753 23.3222 129.004 14.1163 124.481 8.19093C119.959 2.26556 110.375 1.86456 103.076 7.29526C95.7768 12.726 93.526 21.9319 98.0486 27.8572C102.571 33.7826 112.155 34.1836 119.454 28.7529Z" stroke="currentColor" stroke-width="9.68067" stroke-miterlimit="10"/>
<path d="M103.883 16.3198L106.51 14.5044L109.741 19.0429C110.292 19.7691 110.713 20.5471 111.028 21.403C111.212 22.0513 111.159 22.7516 110.896 23.374C110.555 24.152 110.003 24.8004 109.268 25.2672C108.401 25.8637 107.665 26.2009 107.035 26.3046C106.431 26.4083 105.8 26.3046 105.222 26.0453C104.592 25.734 104.04 25.2931 103.62 24.7226L105.879 22.6478C106.063 22.9331 106.299 23.1924 106.562 23.3999C106.746 23.5296 106.956 23.6074 107.193 23.6074C107.376 23.6074 107.56 23.5296 107.692 23.4259C107.954 23.2703 108.138 22.959 108.112 22.6478C108.033 22.2069 107.849 21.766 107.56 21.4289L103.883 16.3198ZM111.763 19.1985L114.154 17.3312C114.416 17.6424 114.758 17.8759 115.126 18.0055C115.651 18.1611 116.203 18.0574 116.649 17.7203C116.964 17.5128 117.227 17.2275 117.332 16.8644C117.49 16.3976 117.227 15.8789 116.754 15.7233C116.675 15.6974 116.597 15.6714 116.518 15.6714C116.203 15.6455 115.651 15.7752 114.837 16.1123C113.497 16.6569 112.446 16.8644 111.658 16.7866C110.896 16.7088 110.187 16.3198 109.767 15.6714C109.452 15.2305 109.294 14.7118 109.268 14.1931C109.268 13.5967 109.425 13.0002 109.767 12.5074C110.266 11.8072 110.87 11.2107 111.606 10.7438C112.709 9.99175 113.681 9.62866 114.521 9.62866C115.362 9.62866 116.15 10.0177 116.886 10.8217L114.521 12.663C114.049 12.0665 113.155 11.9368 112.551 12.4037L112.472 12.4815C112.21 12.6371 112.026 12.8705 111.921 13.1558C111.842 13.3632 111.895 13.5967 112.026 13.7782C112.131 13.9079 112.289 14.0116 112.472 14.0116C112.683 14.0375 113.05 13.9338 113.576 13.7004C114.889 13.1558 115.887 12.8446 116.57 12.7408C117.148 12.6371 117.752 12.6889 118.304 12.9224C118.803 13.1298 119.223 13.4929 119.512 13.9338C119.88 14.4525 120.09 15.0749 120.116 15.7233C120.143 16.3976 119.959 17.046 119.591 17.6165C119.118 18.3167 118.514 18.9132 117.805 19.3801C116.36 20.3656 115.178 20.7805 114.232 20.6249C113.208 20.4693 112.367 19.9506 111.763 19.1985Z" fill="currentColor"/>
</g>
</g>
</g>
<defs>
<clipPath id="clip0_3_14">
<rect width="145.21" height="53.2437" fill="white" transform="translate(0.806641 0.421875)"/>
</clipPath>
</defs>
</svg>
