<svg width="60" height="22" viewBox="0 0 60 22" fill="none" xmlns="http://www.w3.org/2000/svg">
<g clip-path="url(#clip0_3_14)">
<path d="M30.9768 7.28691L33.8314 7.10474C33.8965 7.56553 34.0159 7.90844 34.2113 8.15491C34.5261 8.54069 34.9602 8.73358 35.5355 8.73358C35.9588 8.73358 36.2952 8.63713 36.5232 8.43353C36.7402 8.27279 36.8705 8.0156 36.8705 7.7477C36.8705 7.49052 36.7511 7.24405 36.5449 7.08331C36.3278 6.89042 35.8177 6.69753 35.0145 6.52608C33.7012 6.23674 32.7569 5.85097 32.2033 5.35803C31.6498 4.89724 31.335 4.22213 31.3567 3.50416C31.3567 3.01122 31.5087 2.51828 31.7909 2.11107C32.1165 1.65029 32.5615 1.28594 33.0933 1.08234C33.6686 0.835868 34.4718 0.707275 35.4812 0.707275C36.7185 0.707275 37.6628 0.932312 38.314 1.3931C38.9653 1.84317 39.356 2.57186 39.4754 3.56845L36.6534 3.72919C36.5774 3.30055 36.4255 2.98979 36.1758 2.78618C35.9262 2.58258 35.6006 2.48614 35.1773 2.48614C34.83 2.48614 34.5695 2.56115 34.3958 2.70046C34.233 2.82905 34.1245 3.02194 34.1353 3.23626C34.1353 3.397 34.2221 3.54702 34.3524 3.64347C34.4935 3.77206 34.83 3.88993 35.3618 3.99709C36.6751 4.27571 37.6085 4.55433 38.1838 4.84366C38.759 5.13299 39.1715 5.48662 39.4211 5.90455C39.6816 6.33319 39.8119 6.82613 39.801 7.32978C39.801 7.92988 39.6274 8.52997 39.28 9.03363C38.9219 9.55871 38.4226 9.96592 37.8365 10.2124C37.2178 10.4803 36.4363 10.6196 35.5029 10.6196C33.8531 10.6196 32.7135 10.3088 32.0731 9.67659C31.4327 9.04434 31.0528 8.25136 30.9768 7.28691ZM0.683792 10.4589V0.878732H5.68741C6.60999 0.878732 7.32634 0.953744 7.81476 1.11448C8.29233 1.26451 8.71563 1.57527 8.99783 1.9932C9.31259 2.45399 9.46454 2.98979 9.45369 3.54702C9.48625 4.49003 8.99783 5.39018 8.16208 5.86168C7.83647 6.04386 7.47829 6.17245 7.10926 6.23674C7.38061 6.31176 7.65195 6.44035 7.89074 6.59037C8.07525 6.7404 8.22721 6.91185 8.36831 7.09403C8.53111 7.2762 8.67221 7.4798 8.79161 7.69412L10.246 10.4696H6.83792L5.23155 7.52267C5.02533 7.14761 4.85166 6.90114 4.68886 6.78326C4.47178 6.63324 4.21129 6.55823 3.9508 6.55823H3.6903V10.4481H0.683792V10.4589ZM3.6903 4.75793H4.9602C5.23155 4.7365 5.49204 4.69364 5.75253 4.62934C5.9479 4.59719 6.12156 4.49003 6.24096 4.32929C6.53401 3.94352 6.49059 3.397 6.13242 3.0648C5.93705 2.90406 5.55716 2.81833 5.01447 2.81833H3.6903V4.75793ZM0 18.6673L2.85456 18.4852C2.91968 18.9459 3.03907 19.2889 3.23444 19.5353C3.53835 19.9211 3.98336 20.1247 4.55861 20.1247C4.98191 20.1247 5.31838 20.0283 5.54631 19.8247C5.76339 19.6532 5.89363 19.4067 5.89363 19.1388C5.89363 18.8817 5.77424 18.6352 5.56802 18.4744C5.35094 18.2816 4.84081 18.0887 4.02677 17.9172C2.71346 17.6279 1.76918 17.2421 1.21563 16.7492C0.662084 16.2884 0.347323 15.6133 0.36903 14.8953C0.36903 14.4024 0.520984 13.9094 0.803184 13.5022C1.1288 13.0414 1.57381 12.6771 2.10564 12.4735C2.6809 12.227 3.48408 12.0984 4.49349 12.0984C5.73083 12.0984 6.67511 12.3234 7.32634 12.7842C7.97757 13.245 8.35745 13.963 8.47685 14.9596L5.65485 15.1203C5.57887 14.6917 5.42692 14.3809 5.17728 14.1773C4.9385 13.9737 4.60203 13.8773 4.17873 13.888C3.8314 13.888 3.57091 13.963 3.39725 14.113C3.22359 14.2416 3.1259 14.4345 3.13676 14.6488C3.13676 14.8096 3.22359 14.9596 3.35384 15.056C3.49494 15.1846 3.8314 15.3025 4.36324 15.4097C5.67656 15.6883 6.60999 15.9669 7.18524 16.2562C7.76049 16.5456 8.17294 16.8992 8.42258 17.3171C8.68307 17.7458 8.81331 18.2387 8.81331 18.7316C8.81331 19.3317 8.6288 19.9211 8.29233 20.4248C7.93415 20.9498 7.43488 21.3571 6.84877 21.6035C6.2301 21.8714 5.44863 22.0107 4.5152 22.0107C2.86541 22.0107 1.72576 21.7 1.08538 21.0677C0.445007 20.4248 0.0868307 19.6318 0 18.6673Z" fill="#DCEFF8"/>
<path d="M14.4356 17.9172L17.0622 18.6995C16.9211 19.3531 16.6281 19.9747 16.2265 20.5212C15.8574 21.0034 15.369 21.3785 14.8155 21.6249C14.2511 21.8714 13.5347 22 12.6664 22C11.6136 22 10.7453 21.85 10.0832 21.5499C9.41027 21.2499 8.83501 20.7141 8.34659 19.9532C7.85817 19.1924 7.61938 18.2172 7.61938 17.0278C7.61938 15.4418 8.04268 14.2202 8.90014 13.3736C9.75759 12.527 10.9624 12.0984 12.5253 12.0984C13.7518 12.0984 14.7069 12.3449 15.4124 12.8271C16.1071 13.32 16.6281 14.0701 16.9754 15.0774L14.3271 15.6561C14.2619 15.4311 14.1642 15.206 14.034 15.0131C13.8712 14.7881 13.665 14.6167 13.4153 14.4881C13.1657 14.3595 12.8835 14.3059 12.6013 14.3059C11.9175 14.3059 11.3965 14.5738 11.0383 15.1203C10.767 15.5168 10.6259 16.149 10.6259 17.0063C10.6259 18.0672 10.7887 18.7959 11.1143 19.1924C11.4399 19.5889 11.8958 19.7818 12.4928 19.7818C13.068 19.7818 13.5022 19.621 13.7952 19.3103C14.0883 18.9781 14.3053 18.5173 14.4356 17.9172ZM20.568 12.2591H23.5637V15.6132H26.8415V12.2591H29.8589V21.8393H26.8415V17.9601H23.5637V21.8393H20.568V12.2591Z" fill="#DCEFF8"/>
<path d="M29.4465 17.0492C29.4465 15.4846 29.8915 14.263 30.7707 13.395C31.6499 12.527 32.8872 12.0876 34.461 12.0876C36.0782 12.0876 37.3156 12.5163 38.1947 13.3736C39.0739 14.2309 39.508 15.431 39.508 16.9742C39.508 18.0993 39.3127 19.0102 38.9328 19.7282C38.5638 20.4354 37.9885 21.0141 37.283 21.3999C36.5558 21.7964 35.6549 22 34.5804 22C33.4842 22 32.5833 21.8285 31.8669 21.4856C31.1289 21.1213 30.5211 20.5533 30.1195 19.8568C29.6745 19.1066 29.4465 18.1743 29.4465 17.0492ZM32.4422 17.0599C32.4422 18.0243 32.6267 18.7209 32.9849 19.1495C33.3431 19.5674 33.8423 19.7818 34.4719 19.7818C35.1122 19.7818 35.6115 19.5781 35.9697 19.1602C36.3279 18.7423 36.5015 18.0029 36.5015 16.9313C36.5015 16.0311 36.317 15.3668 35.948 14.9595C35.579 14.5416 35.0797 14.338 34.4502 14.338C33.8966 14.3166 33.3648 14.5523 32.9957 14.9703C32.6267 15.3882 32.4422 16.0847 32.4422 17.0599ZM42.5797 17.0492C42.5797 15.4846 43.0247 14.263 43.9038 13.395C44.783 12.527 46.0203 12.0876 47.5941 12.0876C49.2114 12.0876 50.4596 12.5163 51.3279 13.3736C52.1962 14.2309 52.6412 15.431 52.6412 16.9742C52.6412 18.0993 52.4458 19.0102 52.0659 19.7282C51.6969 20.4354 51.1216 21.0141 50.4161 21.3999C49.6889 21.7964 48.7881 22 47.7135 22C46.6173 22 45.7164 21.8285 45.0001 21.4856C44.262 21.1213 43.6542 20.5533 43.2526 19.8568C42.8076 19.1066 42.5797 18.1743 42.5797 17.0492ZM45.5753 17.0599C45.5753 18.0243 45.7598 18.7209 46.118 19.1495C46.4762 19.5674 46.9755 19.7818 47.605 19.7818C48.2454 19.7818 48.7447 19.5781 49.1028 19.1602C49.461 18.7423 49.6347 18.0029 49.6347 16.9313C49.6347 16.0311 49.4502 15.3668 49.0811 14.9595C48.7121 14.5416 48.2128 14.338 47.5833 14.338C47.0297 14.3166 46.4871 14.5523 46.1289 14.9703C45.7598 15.3882 45.5753 16.0847 45.5753 17.0599Z" fill="#DCEFF8"/>
<path d="M52.3263 12.2592H55.3219V19.4818H59.9999V21.8393H52.3154V12.2592H52.3263Z" fill="#DCEFF8"/>
<path d="M49.0244 11.7062C52.0404 9.46231 52.9704 5.65848 51.1017 3.21015C49.2329 0.761827 45.2731 0.596136 42.2571 2.84007C39.2411 5.08401 38.3111 8.88784 40.1798 11.3362C42.0485 13.7845 46.0084 13.9502 49.0244 11.7062Z" fill="#90A7B2"/>
<mask id="mask0_3_14" style="mask-type:luminance" maskUnits="userSpaceOnUse" x="39" y="1" width="14" height="13">
<path d="M49.0244 11.7062C52.0404 9.46231 52.9704 5.65848 51.1017 3.21015C49.2329 0.761827 45.2731 0.596136 42.2571 2.84007C39.2411 5.08401 38.3111 8.88784 40.1798 11.3362C42.0485 13.7845 46.0084 13.9502 49.0244 11.7062Z" fill="white"/>
</mask>
<g mask="url(#mask0_3_14)">
<path d="M32.488 6.05896L48.0734 -5.53673L58.8579 8.59267L43.2726 20.1884L32.488 6.05896Z" fill="#90A7B2"/>
<mask id="mask1_3_14" style="mask-type:luminance" maskUnits="userSpaceOnUse" x="32" y="-6" width="27" height="27">
<path d="M32.488 6.05896L48.0734 -5.53673L58.8579 8.59267L43.2726 20.1884L32.488 6.05896Z" fill="white"/>
</mask>
<g mask="url(#mask1_3_14)">
<path d="M49.0244 11.7062C52.0404 9.46231 52.9704 5.65848 51.1017 3.21015C49.2329 0.761827 45.2731 0.596136 42.2571 2.84007C39.2411 5.08401 38.3111 8.88784 40.1798 11.3362C42.0485 13.7845 46.0084 13.9502 49.0244 11.7062Z" fill="#90A7B2"/>
<mask id="mask2_3_14" style="mask-type:luminance" maskUnits="userSpaceOnUse" x="39" y="1" width="14" height="13">
<path d="M49.0244 11.7062C52.0404 9.46231 52.9704 5.65848 51.1017 3.21015C49.2329 0.761827 45.2731 0.596136 42.2571 2.84007C39.2411 5.08401 38.3111 8.88784 40.1798 11.3362C42.0485 13.7845 46.0084 13.9502 49.0244 11.7062Z" fill="white"/>
</mask>
<g mask="url(#mask2_3_14)">
<path d="M36.8281 7.00244L47.7415 -1.11693L54.5151 7.75792L43.6018 15.8773L36.8281 7.00244Z" fill="#90A7B2"/>
<mask id="mask3_3_14" style="mask-type:luminance" maskUnits="userSpaceOnUse" x="36" y="-2" width="19" height="18">
<path d="M36.8281 7.00244L47.7415 -1.11693L54.5151 7.75792L43.6018 15.8773L36.8281 7.00244Z" fill="white"/>
</mask>
<g mask="url(#mask3_3_14)">
<path d="M49.0244 11.7062C52.0404 9.46231 52.9704 5.65848 51.1017 3.21015C49.2329 0.761827 45.2731 0.596136 42.2571 2.84007C39.2411 5.08401 38.3111 8.88784 40.1798 11.3362C42.0485 13.7845 46.0084 13.9502 49.0244 11.7062Z" fill="#90A7B2" stroke="#DCEFF8" stroke-width="4" stroke-miterlimit="10"/>
</g>
<mask id="mask4_3_14" style="mask-type:luminance" maskUnits="userSpaceOnUse" x="38" y="-1" width="15" height="17">
<path d="M38.3833 12.3158L42.1313 -0.636663L52.9693 2.44275L49.2213 15.3952L38.3833 12.3158Z" fill="white"/>
</mask>
<g mask="url(#mask4_3_14)">
<path d="M36.8281 6.98743L47.7267 -1.11702L54.5152 7.77276L43.6165 15.8772L36.8281 6.98743Z" stroke="#DCEFF8" stroke-width="4" stroke-miterlimit="10"/>
</g>
<path d="M49.0244 11.7062C52.0404 9.46231 52.9704 5.65848 51.1017 3.21015C49.2329 0.761827 45.2731 0.596136 42.2571 2.84007C39.2411 5.08401 38.3111 8.88784 40.1798 11.3362C42.0485 13.7845 46.0084 13.9502 49.0244 11.7062Z" stroke="#DCEFF8" stroke-width="4" stroke-miterlimit="10"/>
<path d="M36.8281 7.00244L47.7415 -1.11693L54.5151 7.75792L43.6018 15.8773L36.8281 7.00244Z" fill="#90A7B2"/>
<mask id="mask5_3_14" style="mask-type:luminance" maskUnits="userSpaceOnUse" x="36" y="-2" width="19" height="18">
<path d="M36.8281 7.00244L47.7415 -1.11693L54.5151 7.75792L43.6018 15.8773L36.8281 7.00244Z" fill="white"/>
</mask>
<g mask="url(#mask5_3_14)">
<path d="M49.0244 11.7062C52.0404 9.46231 52.9704 5.65848 51.1017 3.21015C49.2329 0.761827 45.2731 0.596136 42.2571 2.84007C39.2411 5.08401 38.3111 8.88784 40.1798 11.3362C42.0485 13.7845 46.0084 13.9502 49.0244 11.7062Z" fill="#90A7B2" stroke="#DCEFF8" stroke-width="4" stroke-miterlimit="10"/>
</g>
<mask id="mask6_3_14" style="mask-type:luminance" maskUnits="userSpaceOnUse" x="38" y="-1" width="15" height="17">
<path d="M38.3833 12.3158L42.1313 -0.636663L52.9693 2.44275L49.2213 15.3952L38.3833 12.3158Z" fill="white"/>
</mask>
<g mask="url(#mask6_3_14)">
<path d="M36.8281 6.98743L47.7267 -1.11702L54.5152 7.77276L43.6165 15.8772L36.8281 6.98743Z" stroke="#DCEFF8" stroke-width="4" stroke-miterlimit="10"/>
</g>
<path d="M32.488 6.05896L48.0734 -5.53673L58.8579 8.59267L43.2726 20.1884L32.488 6.05896Z" stroke="#DCEFF8" stroke-width="4" stroke-miterlimit="10"/>
</g>
<path d="M49.0244 11.7062C52.0404 9.46231 52.9704 5.65848 51.1017 3.21015C49.2329 0.761827 45.2731 0.596136 42.2571 2.84007C39.2411 5.08401 38.3111 8.88784 40.1798 11.3362C42.0485 13.7845 46.0084 13.9502 49.0244 11.7062Z" stroke="#DCEFF8" stroke-width="4" stroke-miterlimit="10"/>
<path d="M42.5905 6.56893L43.6759 5.81881L45.0109 7.69412C45.2388 7.99416 45.4125 8.31565 45.5427 8.66927C45.6187 8.93717 45.597 9.22651 45.4884 9.48369C45.3473 9.80517 45.1194 10.0731 44.8155 10.266C44.4573 10.5124 44.1534 10.6517 43.8929 10.6946C43.6433 10.7375 43.3828 10.6946 43.144 10.5874C42.8835 10.4589 42.6556 10.2767 42.4819 10.0409L43.4154 9.18364C43.4913 9.30152 43.589 9.40868 43.6976 9.49441C43.7735 9.54799 43.8604 9.58014 43.9581 9.58014C44.034 9.58014 44.11 9.54799 44.1643 9.50512C44.2728 9.44083 44.3488 9.31224 44.3379 9.18364C44.3054 9.00147 44.2294 8.8193 44.11 8.67999L42.5905 6.56893ZM45.8466 7.75841L46.8343 6.98686C46.9429 7.11545 47.084 7.2119 47.2359 7.26548C47.453 7.32977 47.6809 7.28691 47.8654 7.1476C47.9957 7.06187 48.1042 6.94399 48.1476 6.79397C48.2128 6.60108 48.1042 6.38676 47.9089 6.32246C47.8763 6.31175 47.8437 6.30103 47.8112 6.30103C47.6809 6.29032 47.453 6.3439 47.1165 6.48321C46.563 6.70824 46.1288 6.79397 45.8032 6.76182C45.4884 6.72967 45.1954 6.56893 45.0217 6.30103C44.8915 6.11886 44.8264 5.90454 44.8155 5.69022C44.8155 5.44375 44.8806 5.19728 45.0217 4.99368C45.228 4.70435 45.4776 4.45788 45.7815 4.26499C46.2374 3.95422 46.639 3.8042 46.9863 3.8042C47.3336 3.8042 47.6592 3.96494 47.9631 4.29714L46.9863 5.05797C46.7909 4.81151 46.4219 4.75793 46.1722 4.95081L46.1397 4.98296C46.0311 5.04726 45.9552 5.1437 45.9117 5.26158C45.8792 5.34731 45.9009 5.44375 45.9552 5.51876C45.9986 5.57234 46.0637 5.61521 46.1397 5.61521C46.2265 5.62592 46.3785 5.58306 46.5955 5.48662C47.1382 5.26158 47.5507 5.13299 47.8329 5.09012C48.0717 5.04726 48.3213 5.06869 48.5492 5.16513C48.7554 5.25086 48.9291 5.40089 49.0485 5.58306C49.2005 5.79738 49.2873 6.05456 49.2981 6.32246C49.309 6.60108 49.233 6.86898 49.0811 7.10473C48.8857 7.39407 48.6361 7.64054 48.343 7.83342C47.746 8.24063 47.2576 8.41209 46.8669 8.34779C46.4436 8.2835 46.0963 8.06918 45.8466 7.75841Z" fill="#DCEFF8"/>
</g>
</g>
</g>
<defs>
<clipPath id="clip0_3_14">
<rect width="60" height="22" fill="white"/>
</clipPath>
</defs>
</svg>
